# xmcd
#
# Track frame offsets: 
#        150
#        14580
#        34383
#        54111
#        74493
#        90585
#        110079
#        137136
#        156118
#        176542
#        195979
#        215766
#        228999
#        265185
#
# Disc length: 3792 seconds
#
# Revision: 0
# Processed by: cddbd v1.5.2PL0 Copyright (c) Steve Scherf et al.
# Submitted via: ExactAudioCopy v1.3
#
DISCID=c50ece0e
DTITLE=Betty Fox Band - Peace In Piece
DYEAR=2020
DGENRE=Blues Soul, Funky Blues
TTITLE0=Green Light
TTITLE1=Winter's Cold
TTITLE2=Marie
TTITLE3=Sweet Memories
TTITLE4=Peace in Pieces
TTITLE5=Let go or be Dragged
TTITLE6=Runnin' Back to you
TTITLE7=Feels so Good
TTITLE8=Sweet Goodnight
TTITLE9=Magnificent Hallucination
TTITLE10=Shattered Dream and Broken Toes
TTITLE11=Rising Strong
TTITLE12=Fireflies
TTITLE13='Til the Storm Passed by
EXTD=
EXTT0=
EXTT1=
EXTT2=
EXTT3=
EXTT4=
EXTT5=
EXTT6=
EXTT7=
EXTT8=
EXTT9=
EXTT10=
EXTT11=
EXTT12=
EXTT13=
PLAYORDER=
